<?xml version="1.0" standalone="no"?>
<!DOCTYPE svg PUBLIC "-//W3C//DTD SVG 20010904//EN"
 "http://www.w3.org/TR/2001/REC-SVG-20010904/DTD/svg10.dtd">
<svg version="1.0" xmlns="http://www.w3.org/2000/svg"
 width="140.000000pt" height="140.000000pt" viewBox="0 0 140.000000 140.000000"
 preserveAspectRatio="xMidYMid meet">
<metadata>
Created by potrace 1.11, written by Peter Selinger 2001-2013
</metadata>
<g transform="translate(0.000000,140.000000) scale(0.100000,-0.100000)"
fill="#000000" stroke="none">
<path d="M225 1206 c-4 -17 -31 -138 -61 -270 -30 -131 -52 -241 -49 -246 7
-11 178 -74 198 -72 11 0 80 26 155 56 316 126 512 172 755 179 l86 2 10 45
c6 25 24 105 41 178 16 73 30 139 30 146 0 10 -117 13 -580 13 l-579 0 -6 -31z"/>
<path d="M1097 794 c-1 -1 -27 -4 -57 -8 -49 -5 -180 -27 -235 -40 -116 -26
-228 -57 -223 -62 2 -2 20 1 39 6 34 9 96 19 154 25 17 2 53 7 80 11 57 8 356
9 397 1 23 -5 28 -2 33 24 4 17 4 33 1 37 -6 5 -182 12 -189 6z"/>
<path d="M829 666 c-2 -2 -47 -7 -100 -11 -111 -7 -127 -9 -133 -16 -2 -2 23
-5 57 -7 66 -3 249 -25 317 -38 14 -2 39 -7 55 -10 55 -10 180 -35 197 -40 13
-4 19 7 29 51 7 30 9 58 5 62 -7 8 -420 16 -427 9z"/>
<path d="M367 590 c4 -4 51 -24 103 -44 139 -56 501 -236 603 -299 48 -31 87
-55 88 -54 0 1 2 11 4 22 2 11 15 67 29 125 14 57 23 106 22 108 -5 4 -215 61
-251 68 -16 3 -57 11 -90 19 -171 38 -535 78 -508 55z"/>
<path d="M79 574 c0 -11 -2 -26 -4 -34 -1 -8 -6 -32 -10 -52 l-7 -38 48 0 c74
-1 223 -13 284 -24 19 -3 46 -8 60 -10 14 -2 43 -7 65 -11 22 -4 47 -9 55 -10
31 -6 147 -37 189 -51 24 -8 45 -13 47 -11 4 3 -43 26 -171 82 -164 72 -427
160 -512 172 -37 4 -43 2 -44 -13z"/>
<path d="M18 282 l-15 -57 251 0 c219 0 328 -5 426 -20 14 -2 41 -6 60 -8 52
-7 177 -35 240 -52 52 -15 92 -19 150 -15 24 2 23 2 -8 16 -58 25 -415 114
-522 129 -31 5 -97 15 -130 21 -27 4 -84 12 -140 19 -19 2 -78 7 -130 10 -52
3 -111 8 -132 10 l-36 3 -14 -56z"/>
</g>
</svg>
